<mxfile host="app.diagrams.net" modified="2024-05-14T18:19:34.193Z" agent="Mozilla/5.0 (Windows NT 10.0; Win64; x64; rv:125.0) Gecko/20100101 Firefox/125.0" etag="_ETf04AFYrGFx4-szp_9" version="24.4.0" type="github">
  <diagram name="Page-1" id="RzII_4V2O326V7Ovdi1S">
    <mxGraphModel dx="2335" dy="803" grid="1" gridSize="10" guides="1" tooltips="1" connect="1" arrows="1" fold="1" page="1" pageScale="1" pageWidth="850" pageHeight="1100" math="0" shadow="0">
      <root>
        <mxCell id="0" />
        <mxCell id="1" parent="0" />
        <mxCell id="XOwIi-h-9XhYpnOAC5Fq-1" value="Staff fills appraisal form and submits to line manger" style="rounded=0;whiteSpace=wrap;html=1;" vertex="1" parent="1">
          <mxGeometry x="70" y="140" width="120" height="60" as="geometry" />
        </mxCell>
        <mxCell id="XOwIi-h-9XhYpnOAC5Fq-54" style="edgeStyle=orthogonalEdgeStyle;rounded=0;orthogonalLoop=1;jettySize=auto;html=1;" edge="1" parent="1" source="XOwIi-h-9XhYpnOAC5Fq-2" target="XOwIi-h-9XhYpnOAC5Fq-53">
          <mxGeometry relative="1" as="geometry" />
        </mxCell>
        <mxCell id="XOwIi-h-9XhYpnOAC5Fq-2" value="Line manager views staff appraisal form" style="rounded=0;whiteSpace=wrap;html=1;" vertex="1" parent="1">
          <mxGeometry x="70" y="370" width="120" height="60" as="geometry" />
        </mxCell>
        <mxCell id="XOwIi-h-9XhYpnOAC5Fq-81" style="edgeStyle=orthogonalEdgeStyle;rounded=0;orthogonalLoop=1;jettySize=auto;html=1;" edge="1" parent="1" source="XOwIi-h-9XhYpnOAC5Fq-10" target="XOwIi-h-9XhYpnOAC5Fq-76">
          <mxGeometry relative="1" as="geometry" />
        </mxCell>
        <mxCell id="XOwIi-h-9XhYpnOAC5Fq-10" value="Line manager submits the form for acceptance by staff" style="rounded=0;whiteSpace=wrap;html=1;" vertex="1" parent="1">
          <mxGeometry x="70" y="930" width="120" height="60" as="geometry" />
        </mxCell>
        <mxCell id="XOwIi-h-9XhYpnOAC5Fq-12" value="Yes" style="text;html=1;align=center;verticalAlign=middle;whiteSpace=wrap;rounded=0;" vertex="1" parent="1">
          <mxGeometry x="130" y="330" width="60" height="30" as="geometry" />
        </mxCell>
        <mxCell id="XOwIi-h-9XhYpnOAC5Fq-75" style="edgeStyle=orthogonalEdgeStyle;rounded=0;orthogonalLoop=1;jettySize=auto;html=1;" edge="1" parent="1" source="XOwIi-h-9XhYpnOAC5Fq-30" target="XOwIi-h-9XhYpnOAC5Fq-10">
          <mxGeometry relative="1" as="geometry" />
        </mxCell>
        <mxCell id="XOwIi-h-9XhYpnOAC5Fq-30" value="System genegates scores(Annual scores)" style="rounded=0;whiteSpace=wrap;html=1;" vertex="1" parent="1">
          <mxGeometry x="70" y="820" width="120" height="60" as="geometry" />
        </mxCell>
        <mxCell id="XOwIi-h-9XhYpnOAC5Fq-90" style="edgeStyle=orthogonalEdgeStyle;rounded=0;orthogonalLoop=1;jettySize=auto;html=1;" edge="1" parent="1" source="XOwIi-h-9XhYpnOAC5Fq-35" target="XOwIi-h-9XhYpnOAC5Fq-89">
          <mxGeometry relative="1" as="geometry" />
        </mxCell>
        <mxCell id="XOwIi-h-9XhYpnOAC5Fq-35" value="Staff confirms appraisal finalization" style="rounded=0;whiteSpace=wrap;html=1;" vertex="1" parent="1">
          <mxGeometry x="-265" y="1040" width="120" height="60" as="geometry" />
        </mxCell>
        <mxCell id="XOwIi-h-9XhYpnOAC5Fq-51" style="edgeStyle=orthogonalEdgeStyle;rounded=0;orthogonalLoop=1;jettySize=auto;html=1;exitX=0;exitY=0;exitDx=55;exitDy=0;exitPerimeter=0;entryX=0;entryY=0.5;entryDx=0;entryDy=0;" edge="1" parent="1" source="XOwIi-h-9XhYpnOAC5Fq-38" target="XOwIi-h-9XhYpnOAC5Fq-1">
          <mxGeometry relative="1" as="geometry">
            <mxPoint x="-35" y="160" as="targetPoint" />
          </mxGeometry>
        </mxCell>
        <mxCell id="XOwIi-h-9XhYpnOAC5Fq-38" value="User is notified of missing inputs " style="shape=card;whiteSpace=wrap;html=1;" vertex="1" parent="1">
          <mxGeometry x="-90" y="220" width="80" height="40" as="geometry" />
        </mxCell>
        <mxCell id="XOwIi-h-9XhYpnOAC5Fq-41" style="edgeStyle=orthogonalEdgeStyle;rounded=0;orthogonalLoop=1;jettySize=auto;html=1;" edge="1" parent="1" source="XOwIi-h-9XhYpnOAC5Fq-40" target="XOwIi-h-9XhYpnOAC5Fq-1">
          <mxGeometry relative="1" as="geometry" />
        </mxCell>
        <mxCell id="XOwIi-h-9XhYpnOAC5Fq-40" value="START" style="ellipse;whiteSpace=wrap;html=1;aspect=fixed;" vertex="1" parent="1">
          <mxGeometry x="90" y="20" width="80" height="80" as="geometry" />
        </mxCell>
        <mxCell id="XOwIi-h-9XhYpnOAC5Fq-48" style="edgeStyle=orthogonalEdgeStyle;rounded=0;orthogonalLoop=1;jettySize=auto;html=1;entryX=0.5;entryY=1;entryDx=0;entryDy=0;entryPerimeter=0;" edge="1" parent="1" source="XOwIi-h-9XhYpnOAC5Fq-44" target="XOwIi-h-9XhYpnOAC5Fq-38">
          <mxGeometry relative="1" as="geometry">
            <mxPoint x="-50" y="280" as="targetPoint" />
          </mxGeometry>
        </mxCell>
        <mxCell id="XOwIi-h-9XhYpnOAC5Fq-50" style="edgeStyle=orthogonalEdgeStyle;rounded=0;orthogonalLoop=1;jettySize=auto;html=1;exitX=0.5;exitY=1;exitDx=0;exitDy=0;" edge="1" parent="1" source="XOwIi-h-9XhYpnOAC5Fq-44" target="XOwIi-h-9XhYpnOAC5Fq-2">
          <mxGeometry relative="1" as="geometry" />
        </mxCell>
        <mxCell id="XOwIi-h-9XhYpnOAC5Fq-44" value="All required inputs filled?" style="rhombus;whiteSpace=wrap;html=1;" vertex="1" parent="1">
          <mxGeometry x="90" y="250" width="80" height="80" as="geometry" />
        </mxCell>
        <mxCell id="XOwIi-h-9XhYpnOAC5Fq-46" value="No" style="text;html=1;align=center;verticalAlign=middle;resizable=0;points=[];autosize=1;strokeColor=none;fillColor=none;" vertex="1" parent="1">
          <mxGeometry y="290" width="40" height="30" as="geometry" />
        </mxCell>
        <mxCell id="XOwIi-h-9XhYpnOAC5Fq-49" style="edgeStyle=orthogonalEdgeStyle;rounded=0;orthogonalLoop=1;jettySize=auto;html=1;entryX=0.475;entryY=0.088;entryDx=0;entryDy=0;entryPerimeter=0;" edge="1" parent="1" source="XOwIi-h-9XhYpnOAC5Fq-1" target="XOwIi-h-9XhYpnOAC5Fq-44">
          <mxGeometry relative="1" as="geometry" />
        </mxCell>
        <mxCell id="XOwIi-h-9XhYpnOAC5Fq-57" style="edgeStyle=orthogonalEdgeStyle;rounded=0;orthogonalLoop=1;jettySize=auto;html=1;" edge="1" parent="1" source="XOwIi-h-9XhYpnOAC5Fq-53" target="XOwIi-h-9XhYpnOAC5Fq-56">
          <mxGeometry relative="1" as="geometry" />
        </mxCell>
        <mxCell id="XOwIi-h-9XhYpnOAC5Fq-60" style="edgeStyle=orthogonalEdgeStyle;rounded=0;orthogonalLoop=1;jettySize=auto;html=1;entryX=1;entryY=0.5;entryDx=0;entryDy=0;" edge="1" parent="1" source="XOwIi-h-9XhYpnOAC5Fq-53" target="XOwIi-h-9XhYpnOAC5Fq-59">
          <mxGeometry relative="1" as="geometry" />
        </mxCell>
        <mxCell id="XOwIi-h-9XhYpnOAC5Fq-53" value="Is &lt;br&gt;&lt;div&gt;Form filled correctly&amp;nbsp;&lt;/div&gt;&lt;div&gt;by staff?&lt;/div&gt;" style="rhombus;whiteSpace=wrap;html=1;" vertex="1" parent="1">
          <mxGeometry x="80" y="470" width="100" height="90" as="geometry" />
        </mxCell>
        <mxCell id="XOwIi-h-9XhYpnOAC5Fq-87" style="edgeStyle=orthogonalEdgeStyle;rounded=0;orthogonalLoop=1;jettySize=auto;html=1;entryX=0.5;entryY=0;entryDx=0;entryDy=0;exitX=0.5;exitY=1;exitDx=0;exitDy=0;" edge="1" parent="1" source="XOwIi-h-9XhYpnOAC5Fq-91" target="XOwIi-h-9XhYpnOAC5Fq-86">
          <mxGeometry relative="1" as="geometry">
            <mxPoint x="130.0588235294117" y="1100" as="sourcePoint" />
          </mxGeometry>
        </mxCell>
        <mxCell id="XOwIi-h-9XhYpnOAC5Fq-72" style="edgeStyle=orthogonalEdgeStyle;rounded=0;orthogonalLoop=1;jettySize=auto;html=1;" edge="1" parent="1" source="XOwIi-h-9XhYpnOAC5Fq-56" target="XOwIi-h-9XhYpnOAC5Fq-71">
          <mxGeometry relative="1" as="geometry" />
        </mxCell>
        <mxCell id="XOwIi-h-9XhYpnOAC5Fq-56" value="&lt;div&gt;Line manager&lt;/div&gt;&lt;div&gt;&amp;nbsp;scores staff&lt;/div&gt;" style="shape=parallelogram;perimeter=parallelogramPerimeter;whiteSpace=wrap;html=1;fixedSize=1;" vertex="1" parent="1">
          <mxGeometry x="70" y="600" width="120" height="60" as="geometry" />
        </mxCell>
        <mxCell id="XOwIi-h-9XhYpnOAC5Fq-67" style="edgeStyle=orthogonalEdgeStyle;rounded=0;orthogonalLoop=1;jettySize=auto;html=1;" edge="1" parent="1" source="XOwIi-h-9XhYpnOAC5Fq-59" target="XOwIi-h-9XhYpnOAC5Fq-65">
          <mxGeometry relative="1" as="geometry" />
        </mxCell>
        <mxCell id="XOwIi-h-9XhYpnOAC5Fq-59" value="&lt;div&gt;Line manager&amp;nbsp;&lt;/div&gt;&lt;div&gt;inputs comments&lt;/div&gt;" style="shape=parallelogram;perimeter=parallelogramPerimeter;whiteSpace=wrap;html=1;fixedSize=1;" vertex="1" parent="1">
          <mxGeometry x="-70" y="485" width="120" height="60" as="geometry" />
        </mxCell>
        <mxCell id="XOwIi-h-9XhYpnOAC5Fq-61" value="No" style="text;html=1;align=center;verticalAlign=middle;resizable=0;points=[];autosize=1;strokeColor=none;fillColor=none;" vertex="1" parent="1">
          <mxGeometry x="40" y="515" width="40" height="30" as="geometry" />
        </mxCell>
        <mxCell id="XOwIi-h-9XhYpnOAC5Fq-68" style="edgeStyle=orthogonalEdgeStyle;rounded=0;orthogonalLoop=1;jettySize=auto;html=1;" edge="1" parent="1" source="XOwIi-h-9XhYpnOAC5Fq-65" target="XOwIi-h-9XhYpnOAC5Fq-66">
          <mxGeometry relative="1" as="geometry" />
        </mxCell>
        <mxCell id="XOwIi-h-9XhYpnOAC5Fq-65" value="Email notification sent to staff" style="rounded=0;whiteSpace=wrap;html=1;" vertex="1" parent="1">
          <mxGeometry x="-230" y="485" width="120" height="60" as="geometry" />
        </mxCell>
        <mxCell id="XOwIi-h-9XhYpnOAC5Fq-70" style="edgeStyle=orthogonalEdgeStyle;rounded=0;orthogonalLoop=1;jettySize=auto;html=1;" edge="1" parent="1" source="XOwIi-h-9XhYpnOAC5Fq-66" target="XOwIi-h-9XhYpnOAC5Fq-69">
          <mxGeometry relative="1" as="geometry" />
        </mxCell>
        <mxCell id="XOwIi-h-9XhYpnOAC5Fq-66" value="&lt;div&gt;System alerts&amp;nbsp;&lt;/div&gt;&lt;div&gt;user in navbar when they login&lt;/div&gt;" style="shape=card;whiteSpace=wrap;html=1;" vertex="1" parent="1">
          <mxGeometry x="-380" y="480" width="110" height="70" as="geometry" />
        </mxCell>
        <mxCell id="XOwIi-h-9XhYpnOAC5Fq-69" value="A" style="ellipse;whiteSpace=wrap;html=1;aspect=fixed;" vertex="1" parent="1">
          <mxGeometry x="-480" y="490" width="50" height="50" as="geometry" />
        </mxCell>
        <mxCell id="XOwIi-h-9XhYpnOAC5Fq-73" style="edgeStyle=orthogonalEdgeStyle;rounded=0;orthogonalLoop=1;jettySize=auto;html=1;" edge="1" parent="1" source="XOwIi-h-9XhYpnOAC5Fq-71" target="XOwIi-h-9XhYpnOAC5Fq-30">
          <mxGeometry relative="1" as="geometry" />
        </mxCell>
        <mxCell id="XOwIi-h-9XhYpnOAC5Fq-74" style="edgeStyle=orthogonalEdgeStyle;rounded=0;orthogonalLoop=1;jettySize=auto;html=1;entryX=0;entryY=0.5;entryDx=0;entryDy=0;exitX=0;exitY=0.5;exitDx=0;exitDy=0;" edge="1" parent="1" source="XOwIi-h-9XhYpnOAC5Fq-71" target="XOwIi-h-9XhYpnOAC5Fq-56">
          <mxGeometry relative="1" as="geometry">
            <mxPoint x="-10.000000000000114" y="630.78" as="targetPoint" />
            <mxPoint x="46.93882352941171" y="699.998823529412" as="sourcePoint" />
            <Array as="points">
              <mxPoint x="-40" y="740" />
              <mxPoint x="-40" y="630" />
            </Array>
          </mxGeometry>
        </mxCell>
        <mxCell id="XOwIi-h-9XhYpnOAC5Fq-71" value="Is form filled correctly by line manger" style="rhombus;whiteSpace=wrap;html=1;" vertex="1" parent="1">
          <mxGeometry x="90" y="700" width="80" height="80" as="geometry" />
        </mxCell>
        <mxCell id="XOwIi-h-9XhYpnOAC5Fq-80" style="edgeStyle=orthogonalEdgeStyle;rounded=0;orthogonalLoop=1;jettySize=auto;html=1;" edge="1" parent="1" source="XOwIi-h-9XhYpnOAC5Fq-76" target="XOwIi-h-9XhYpnOAC5Fq-77">
          <mxGeometry relative="1" as="geometry" />
        </mxCell>
        <mxCell id="XOwIi-h-9XhYpnOAC5Fq-76" value="Email notification sent to staff" style="rounded=0;whiteSpace=wrap;html=1;" vertex="1" parent="1">
          <mxGeometry x="-100" y="930" width="120" height="60" as="geometry" />
        </mxCell>
        <mxCell id="XOwIi-h-9XhYpnOAC5Fq-88" style="edgeStyle=orthogonalEdgeStyle;rounded=0;orthogonalLoop=1;jettySize=auto;html=1;entryX=0.5;entryY=0;entryDx=0;entryDy=0;" edge="1" parent="1" source="XOwIi-h-9XhYpnOAC5Fq-77" target="XOwIi-h-9XhYpnOAC5Fq-35">
          <mxGeometry relative="1" as="geometry" />
        </mxCell>
        <mxCell id="XOwIi-h-9XhYpnOAC5Fq-77" value="&lt;div&gt;System alerts&amp;nbsp;&lt;/div&gt;&lt;div&gt;user in navbar when they login&lt;/div&gt;" style="shape=card;whiteSpace=wrap;html=1;" vertex="1" parent="1">
          <mxGeometry x="-260" y="925" width="110" height="70" as="geometry" />
        </mxCell>
        <mxCell id="XOwIi-h-9XhYpnOAC5Fq-83" value="Yes" style="text;html=1;align=center;verticalAlign=middle;resizable=0;points=[];autosize=1;strokeColor=none;fillColor=none;" vertex="1" parent="1">
          <mxGeometry x="140" y="560" width="40" height="30" as="geometry" />
        </mxCell>
        <mxCell id="XOwIi-h-9XhYpnOAC5Fq-84" value="Yes" style="text;html=1;align=center;verticalAlign=middle;resizable=0;points=[];autosize=1;strokeColor=none;fillColor=none;" vertex="1" parent="1">
          <mxGeometry x="130" y="780" width="40" height="30" as="geometry" />
        </mxCell>
        <mxCell id="XOwIi-h-9XhYpnOAC5Fq-85" value="No" style="text;html=1;align=center;verticalAlign=middle;resizable=0;points=[];autosize=1;strokeColor=none;fillColor=none;" vertex="1" parent="1">
          <mxGeometry x="-40" y="680" width="40" height="30" as="geometry" />
        </mxCell>
        <mxCell id="XOwIi-h-9XhYpnOAC5Fq-94" style="edgeStyle=orthogonalEdgeStyle;rounded=0;orthogonalLoop=1;jettySize=auto;html=1;" edge="1" parent="1" source="XOwIi-h-9XhYpnOAC5Fq-86" target="XOwIi-h-9XhYpnOAC5Fq-93">
          <mxGeometry relative="1" as="geometry" />
        </mxCell>
        <mxCell id="XOwIi-h-9XhYpnOAC5Fq-97" style="edgeStyle=orthogonalEdgeStyle;rounded=0;orthogonalLoop=1;jettySize=auto;html=1;" edge="1" parent="1" source="XOwIi-h-9XhYpnOAC5Fq-86" target="XOwIi-h-9XhYpnOAC5Fq-96">
          <mxGeometry relative="1" as="geometry" />
        </mxCell>
        <mxCell id="XOwIi-h-9XhYpnOAC5Fq-86" value="Is OTP Correct" style="rhombus;whiteSpace=wrap;html=1;" vertex="1" parent="1">
          <mxGeometry x="110" y="1140" width="80" height="80" as="geometry" />
        </mxCell>
        <mxCell id="XOwIi-h-9XhYpnOAC5Fq-92" style="edgeStyle=orthogonalEdgeStyle;rounded=0;orthogonalLoop=1;jettySize=auto;html=1;" edge="1" parent="1" source="XOwIi-h-9XhYpnOAC5Fq-89" target="XOwIi-h-9XhYpnOAC5Fq-91">
          <mxGeometry relative="1" as="geometry" />
        </mxCell>
        <mxCell id="XOwIi-h-9XhYpnOAC5Fq-89" value="System sends OTP to user email" style="rounded=0;whiteSpace=wrap;html=1;" vertex="1" parent="1">
          <mxGeometry x="-90" y="1040" width="120" height="60" as="geometry" />
        </mxCell>
        <mxCell id="XOwIi-h-9XhYpnOAC5Fq-91" value="User inputs OTP" style="shape=parallelogram;perimeter=parallelogramPerimeter;whiteSpace=wrap;html=1;fixedSize=1;" vertex="1" parent="1">
          <mxGeometry x="90" y="1040" width="120" height="60" as="geometry" />
        </mxCell>
        <mxCell id="XOwIi-h-9XhYpnOAC5Fq-93" value="A" style="ellipse;whiteSpace=wrap;html=1;aspect=fixed;" vertex="1" parent="1">
          <mxGeometry x="260" y="1155" width="50" height="50" as="geometry" />
        </mxCell>
        <mxCell id="XOwIi-h-9XhYpnOAC5Fq-95" value="No" style="text;html=1;align=center;verticalAlign=middle;resizable=0;points=[];autosize=1;strokeColor=none;fillColor=none;" vertex="1" parent="1">
          <mxGeometry x="200" y="1150" width="40" height="30" as="geometry" />
        </mxCell>
        <mxCell id="XOwIi-h-9XhYpnOAC5Fq-99" style="edgeStyle=orthogonalEdgeStyle;rounded=0;orthogonalLoop=1;jettySize=auto;html=1;" edge="1" parent="1" source="XOwIi-h-9XhYpnOAC5Fq-96" target="XOwIi-h-9XhYpnOAC5Fq-98">
          <mxGeometry relative="1" as="geometry" />
        </mxCell>
        <mxCell id="XOwIi-h-9XhYpnOAC5Fq-96" value="Appraisal data saved" style="rounded=0;whiteSpace=wrap;html=1;" vertex="1" parent="1">
          <mxGeometry x="90" y="1260" width="120" height="60" as="geometry" />
        </mxCell>
        <mxCell id="XOwIi-h-9XhYpnOAC5Fq-98" value="END" style="ellipse;whiteSpace=wrap;html=1;aspect=fixed;" vertex="1" parent="1">
          <mxGeometry x="110" y="1360" width="80" height="80" as="geometry" />
        </mxCell>
      </root>
    </mxGraphModel>
  </diagram>
</mxfile>
